<?xml version="1.0" encoding="utf-8"?>
<!-- Generator: Adobe Illustrator 24.1.0, SVG Export Plug-In . SVG Version: 6.00 Build 0)  -->
<svg version="1.1" id="Capa_1" xmlns="http://www.w3.org/2000/svg" xmlns:xlink="http://www.w3.org/1999/xlink" x="0px" y="0px"
	 viewBox="0 0 346.15 168.85" style="enable-background:new 0 0 346.15 168.85;" xml:space="preserve">
<g>
	<path d="M151.39,168.69c-6.13-0.6-115.9,1.26-117.82-0.99c-14.33-2.88-27.15-12.81-31.39-27.38c-3.86-7.36-1.27-86.02-1.97-95.67
		c0-17.47,10.87-35.29,28.43-40.38c4.58-3.76,114.51-1.35,122.76-1.97v30.17H42.56c-8,0-12.21,4.36-12.18,12.42
		c1.6,128.59-22.2,86.69,121.02,93.64V168.69z"/>
	<path d="M345.74,71.92c-2.62,71.7-75.92,53.79-124.04,55.93V97.68c7.6-0.7,73.36,2.06,78.73-2.38
		c15.8-5.47,15.83-23.02,15.14-37.07c-0.95-10.15-5.47-19.92-15.2-23.84c-4.92-3.79-71.38-1.21-78.44-1.92
		c-7.96-0.03-12.31,4.25-12.3,12.18c0,0,0,124.04,0,124.04h-30.17c0,0,0-124.04,0-124.04c-0.21-13.68,5.14-24.98,14.79-32.84
		c7.5-6.16,18.37-9.46,27.44-9.51c13.75,0.95,74.57-2.38,86.56,2.61C337.25,13.16,348.5,44.61,345.74,71.92z"/>
</g>
</svg>
